# xmcd CD database file
#
# Track frame offsets:
#	150
#	25913
#	50280
#	75794
#	98924
#	123783
#	142909
#	161556
#	181988
#	205327
#	233177
#	250724
#	269737
#
# Disc length: 3826 seconds
#
# Revision: 5
# Processed by: cddbd v1.5.2PL0 Copyright (c) Steve Scherf et al.
# Submitted via: CDex 1.70beta3
#
DISCID=a20ef00d
DTITLE=BENI - COVERS
DYEAR=2012
DGENRE=blues
TTITLE0=Ti Amo
TTITLE1=LA・LA・LA LOVE SONG
TTITLE2=瞳をとじて
TTITLE3=奏
TTITLE4=One more time, One more chance
TTITLE5=ロビンソン
TTITLE6=Suddenly -ラブ・ストーリーは突然に-
TTITLE7=もう恋なんてしない
TTITLE8=桜坂
TTITLE9=ここにしか咲かない花
TTITLE10=今のキミを忘れない
TTITLE11=いとしのエリー
TTITLE12=TRUE LOVE
EXTD=YEAR: 2012
EXTT0=
EXTT1=
EXTT2=
EXTT3=
EXTT4=
EXTT5=
EXTT6=
EXTT7=
EXTT8=
EXTT9=
EXTT10=
EXTT11=
EXTT12=
PLAYORDER=
